<svg xmlns="http://www.w3.org/2000/svg" width="1024" height="540" version="1">
  <filter id="blur">
    <feGaussianBlur stdDeviation="12" />
  </filter>
  <g filter="url(#blur)">
    <path fill="#e7e4d9" d="M0 0h1024v540H0z"/>
    <path fill="#a9cff7" d="M162 554l300-340-100 220z"/>
    <path fill="#b4d0ed" d="M690 126l240-48 128 72z"/>
    <path fill="#aacded" d="M454 202l308-96H590z"/>
    <path fill="#cedfc0" d="M702 450L466 126l-128 64z"/>
    <path fill="#f3e8e0" d="M602-62L-18 602 166-58z"/>
    <path fill="#dfe1b4" d="M878-62l204 160-208-12z"/>
    <path fill="#f1e8df" d="M1086 506l-908 96 224-240z"/>
    <path fill="#b8d3fc" d="M414 298l60-112 92-48z"/>
    <path fill="#d7e2be" d="M894 302l-80-12 64-228z"/>
    <path fill="#d3ddb2" d="M6 310l92-32-76-80z"/>
    <path fill="#f1e9e2" d="M874 130l116 4-4 404z"/>
    <path fill="#dde1a4" d="M-62 6L66-58-62 286z"/>
    <path fill="#f2e2b8" d="M458 274l216-140-112 24z"/>
    <path fill="#a6cef7" d="M262 514l-48-20-108 108z"/>
    <path fill="#f1e8df" d="M526 178l288 376 16-420z"/>
    <path fill="#f5e9d9" d="M918 102L690-62 438 98z"/>
    <path fill="#f1e2b0" d="M782 90L678 74l-100 40z"/>
    <path fill="#eeddaf" d="M394 230l-40 104 128-164z"/>
    <path fill="#dbdec2" d="M318 134l132-24 24 120z"/>
    <path fill="#ebddc0" d="M442 446l-88-140 104 96z"/>
    <path fill="#f8efec" d="M530 326l-100-20 24 132z"/>
    <path fill="#e2dab7" d="M830 378v200l32-112z"/>
    <path fill="#afd0ef" d="M1018 118l-120-12 180 72z"/>
    <path fill="#ffecda" d="M978 86l80-148 28 236z"/>
    <path fill="#eee0cb" d="M78 42l48 176 84-108z"/>
    <path fill="#f6ede5" d="M22 66L90-62 70 266z"/>
    <path fill="#b9d5f3" d="M514 146l116-32-196 128z"/>
    <path fill="#eee7e1" d="M86 586L-62 314l444-40z"/>
    <path fill="#eae0ca" d="M302 566l-132 36 224-212z"/>
    <path fill="#d4e7c6" d="M690 406l-64 36-112-228z"/>
    <path fill="#b5d3f1" d="M734 138l12-40 144 16z"/>
    <path fill="#d4dab5" d="M994 122l-28-96-132-88z"/>
    <path fill="#e2d7a9" d="M6 178v-60l36-4z"/>
    <path fill="#eedaa8" d="M298 394l80-92-52 32z"/>
    <path fill="#f0e9e3" d="M410 246l-88 104-36-172z"/>
    <path fill="#f6e7c8" d="M1034 174l-68-44-116 8z"/>
    <path fill="#ead9bd" d="M466 474l156 128 32-48z"/>
    <path fill="#ede8e2" d="M846 594l228-548-32 520z"/>
    <path fill="#efd6a5" d="M638 138l12-60 8 76z"/>
    <path fill="#f5e2c3" d="M302 394l-116 64-72 136z"/>
    <path fill="#ede7e3" d="M422-62L926 50 654 90z"/>
    <path fill="#b5d2f4" d="M402 354l44-128-52 68z"/>
    <path fill="#f6e9d8" d="M454 98l24 64 156-72z"/>
    <path fill="#f4eeea" d="M774 418L578 602l76-144z"/>
    <path fill="#feebde" d="M494 210l-36 44 92-64z"/>
    <path fill="#ded8ba" d="M798 362l4-132 20 56z"/>
    <path fill="#b89e95" d="M170 138l20-8h-36z"/>
    <path fill="#e9e1d0" d="M302 378l28-116-116-92z"/>
    <path fill="#e5d7bf" d="M90 266l40 28 80-16z"/>
    <path fill="#e6ddba" d="M626 78L490 90l64-32z"/>
    <path fill="#dedeae" d="M618 142l-24 40-76 24z"/>
    <path fill="#ffdb8e" d="M498 242l-20-4-20-24z"/>
    <path fill="#d3e9c2" d="M982 438l20-48v108z"/>
    <path fill="#e8dfcf" d="M110 514l112-136L22 510z"/>
    <path fill="#d2c8bf" d="M1018 310l-56-4 44-20z"/>
    <path fill="#dcd1b0" d="M430 290l36-16-56 72z"/>
    <path fill="#eeebe6" d="M802 302l20 88 144-100z"/>
    <path fill="#dee2c7" d="M890 138l12 212-96-216z"/>
    <path fill="#f2dbaf" d="M126 102l-36-4-52 40z"/>
    <path fill="#cddab9" d="M802 30l12-92 124 20z"/>
  </g>
</svg>
